<svg xmlns="http://www.w3.org/2000/svg" width="134" height="21" viewBox="0 0 134 21">
  <defs>
    <style>
      .cls-1 {
        fill: #f1c40f;
        fill-rule: evenodd;
      }
    </style>
  </defs>
  <path class="cls-1" d="M736.111,611a0.779,0.779,0,0,1-.45-0.141l-6.163-4.369-6.163,4.369a0.777,0.777,0,0,1-1.071-.166,0.739,0.739,0,0,1-.106-0.681l2.4-6.963-6.23-4.178a0.74,0.74,0,0,1-.2-1.042,0.767,0.767,0,0,1,.63-0.326h7.686l2.32-6.981a0.77,0.77,0,0,1,.966-0.482,0.76,0.76,0,0,1,.493.482l2.319,6.983h7.686a0.758,0.758,0,0,1,.767.749,0.744,0.744,0,0,1-.334.619l-6.232,4.176,2.4,6.961a0.746,0.746,0,0,1-.481.951A0.774,0.774,0,0,1,736.111,611Z" transform="translate(-718 -590)"/>
  <path id="Shape_1_copy" data-name="Shape 1 copy" class="cls-1" d="M764.111,611a0.779,0.779,0,0,1-.45-0.141l-6.163-4.369-6.163,4.369a0.777,0.777,0,0,1-1.071-.166,0.739,0.739,0,0,1-.106-0.681l2.4-6.963-6.23-4.178a0.74,0.74,0,0,1-.2-1.042,0.767,0.767,0,0,1,.63-0.326h7.686l2.32-6.981a0.77,0.77,0,0,1,.966-0.482,0.76,0.76,0,0,1,.493.482l2.319,6.983h7.686a0.758,0.758,0,0,1,.767.749,0.744,0.744,0,0,1-.334.619l-6.232,4.176,2.4,6.961a0.746,0.746,0,0,1-.481.951A0.774,0.774,0,0,1,764.111,611Z" transform="translate(-718 -590)"/>
  <path id="Shape_1_copy_2" data-name="Shape 1 copy 2" class="cls-1" d="M792.111,611a0.779,0.779,0,0,1-.45-0.141l-6.163-4.369-6.163,4.369a0.777,0.777,0,0,1-1.071-.166,0.739,0.739,0,0,1-.106-0.681l2.4-6.963-6.23-4.178a0.74,0.74,0,0,1-.2-1.042,0.767,0.767,0,0,1,.63-0.326h7.686l2.32-6.981a0.77,0.77,0,0,1,.966-0.482,0.76,0.76,0,0,1,.493.482l2.319,6.983h7.686a0.758,0.758,0,0,1,.767.749,0.744,0.744,0,0,1-.334.619l-6.232,4.176,2.4,6.961a0.746,0.746,0,0,1-.481.951A0.774,0.774,0,0,1,792.111,611Z" transform="translate(-718 -590)"/>
  <path id="Shape_1_copy_3" data-name="Shape 1 copy 3" class="cls-1" d="M819.111,611a0.779,0.779,0,0,1-.45-0.141l-6.163-4.369-6.163,4.369a0.777,0.777,0,0,1-1.071-.166,0.739,0.739,0,0,1-.106-0.681l2.4-6.963-6.23-4.178a0.74,0.74,0,0,1-.2-1.042,0.767,0.767,0,0,1,.63-0.326h7.686l2.32-6.981a0.77,0.77,0,0,1,.966-0.482,0.76,0.76,0,0,1,.493.482l2.319,6.983h7.686a0.758,0.758,0,0,1,.767.749,0.744,0.744,0,0,1-.334.619l-6.232,4.176,2.4,6.961a0.746,0.746,0,0,1-.481.951A0.774,0.774,0,0,1,819.111,611Z" transform="translate(-718 -590)"/>
  <path id="Shape_1_copy_4" data-name="Shape 1 copy 4" class="cls-1" d="M847.111,611a0.779,0.779,0,0,1-.45-0.141l-6.163-4.369-6.163,4.369a0.777,0.777,0,0,1-1.071-.166,0.739,0.739,0,0,1-.106-0.681l2.4-6.963-6.23-4.178a0.74,0.74,0,0,1-.2-1.042,0.767,0.767,0,0,1,.63-0.326h7.686l2.32-6.981a0.77,0.77,0,0,1,.966-0.482,0.76,0.76,0,0,1,.493.482l2.319,6.983h7.686a0.758,0.758,0,0,1,.767.749,0.744,0.744,0,0,1-.334.619l-6.232,4.176,2.4,6.961a0.746,0.746,0,0,1-.481.951A0.774,0.774,0,0,1,847.111,611Z" transform="translate(-718 -590)"/>
</svg>
